# xmcd CD database file
#
# Track frame offsets:
#	150
#	22118
#	43605
#	63262
#	84171
#	103560
#	121796
#	141940
#	162898
#	181475
#	196906
#	217274
#	237683
#
# Disc length: 3390 seconds
#
# Revision: 0
# Processed by: cddbd v1.5.2PL0 Copyright (c) Steve Scherf et al.
# Submitted via: NeoAudio 9.9.9
#
DISCID=b60d3c0d
DTITLE=Picante - Latin Salsa Hits - CD3
DYEAR=2011
DGENRE=Salsa
TTITLE0=Me Tienes Vigilado - Los Niches
TTITLE1=Ritmo Sabroso - Jesus Pagan y Su Orquesta
TTITLE2=El Chance - Anthony G
TTITLE3=ConKlase - Tony Canales
TTITLE4=Sale El Boogaloo - Fruko y Sus Tesos
TTITLE5=Pa La Rueda - Dante Vargas and the Cat Band
TTITLE6=Casino Rueda - Luisito Rosario
TTITLE7=La Comay - Sonora Carruseles
TTITLE8=Manyoma - Joe Arroyo y La Verdad
TTITLE9=Brujeria - Los Nemus
TTITLE10=DUele - Grupo Caneo
TTITLE11=El Talisman - The Latin Brothers
TTITLE12=Descarga Pampini - Gabino Pampini
EXTD=YEAR: 2011
EXTT0=
EXTT1=
EXTT2=
EXTT3=
EXTT4=
EXTT5=
EXTT6=
EXTT7=
EXTT8=
EXTT9=
EXTT10=
EXTT11=
EXTT12=
PLAYORDER=
